PathFileType  4	(X/Y/Z) C:\Users\antoi\Documents\MyRepositories\mobilecap\ResultsAnalysis
DataRate	CameraRate	NumFrames	NumMarkers	Units	OrigDataRate	OrigDataStartFrame	OrigNumFrames
100.0	100.0	6	51	mm	100.0	86	137
Frame#	Time	r_knee			r_shank_antsup			r_ankle			r_calc			r_5meta			r_toe			L_knee			L_shank_antsup			L_ankle			L_calc			L_5meta			L_toe			r_sh2			r_sh3			r_sh4			L_sh2			L_sh3			r_thigh1			r_thigh2			r_thigh3			r_thigh4			r_thigh5			L_thigh1			L_thigh2			L_thigh3			L_thigh4			r.ASIS			r.PSIS			L.ASIS			L.PSIS			C7			R_Shoulder			L_Shoulder			R_Sternum			L_Sternum			R_humerus			R_elbow_med			R_elbow_lat			R_forearm			R_wrist_radius			R_wrist_ulna			L_humerus			L_elbow_med			L_elbow_lat			L_forearm			L_wrist_radius			L_wrist_ulna			R_HJC			L_HJC			R_HJC_reg			L_HJC_reg			
		X1	Y1	Z1	X2	Y2	Z2	X3	Y3	Z3	X4	Y4	Z4	X5	Y5	Z5	X6	Y6	Z6	X7	Y7	Z7	X8	Y8	Z8	X9	Y9	Z9	X10	Y10	Z10	X11	Y11	Z11	X12	Y12	Z12	X13	Y13	Z13	X14	Y14	Z14	X15	Y15	Z15	X16	Y16	Z16	X17	Y17	Z17	X18	Y18	Z18	X19	Y19	Z19	X20	Y20	Z20	X21	Y21	Z21	X22	Y22	Z22	X23	Y23	Z23	X24	Y24	Z24	X25	Y25	Z25	X26	Y26	Z26	X27	Y27	Z27	X28	Y28	Z28	X29	Y29	Z29	X30	Y30	Z30	X31	Y31	Z31	X32	Y32	Z32	X33	Y33	Z33	X34	Y34	Z34	X35	Y35	Z35	X36	Y36	Z36	X37	Y37	Z37	X38	Y38	Z38	X39	Y39	Z39	X40	Y40	Z40	X41	Y41	Z41	X42	Y42	Z42	X43	Y43	Z43	X44	Y44	Z44	X45	Y45	Z45	X46	Y46	Z46	X47	Y47	Z47	X48	Y48	Z48	X49	Y49	Z49	X50	Y50	Z50	X51	Y51	Z51	

86	0.85000000	1031.92505	582.44120	-79.07734	1036.92779	474.83364	-99.53189	805.83510	234.84995	-167.63819	719.67904	239.88591	-231.74020	849.84593	101.77355	-128.90083	926.40090	101.23002	-177.97724	907.74499	551.14384	-454.12287	902.17192	459.75663	-474.89762	867.42751	123.51430	-410.91716	795.51702	76.01510	-344.95451	976.57263	47.50637	-448.35698	1042.48414	75.46303	-393.07906	966.27554	387.95494	-90.60921	989.79719	517.15168	-58.45475	903.15530	439.59019	-69.36409	816.76910	470.51139	-447.04042	819.66607	348.89904	-441.22727	987.08622	907.37227	-87.95955	1034.26132	808.40003	-78.01345	988.87958	765.58971	-49.51576	886.55434	861.61946	-73.88604	938.14045	757.18719	-69.61803	956.55299	855.66710	-463.43826	981.34492	716.83170	-457.96369	849.84487	833.77570	-473.23111	869.34362	699.12822	-471.75976	950.83588	1097.78920	-143.16153	771.49279	1098.54034	-212.06950	957.04442	1079.70644	-397.25991	770.10544	1097.74882	-322.40015	915.17428	1607.22968	-434.53884	981.92005	1589.99976	-251.55345	927.94123	1469.20399	-567.96951	1010.58592	1505.25316	-377.89917	1001.26617	1481.99577	-428.42819	946.64650	1463.88808	-135.60357	805.50632	1293.36086	-119.79819	831.28828	1329.38818	-44.29787	891.50603	1171.90251	11.39137	934.36515	1083.31305	16.64687	898.14774	1093.25399	43.39941	884.42202	1330.35450	-606.35085	830.93367	1121.57393	-479.81919	821.19409	1116.44608	-562.25900	857.06680	1052.24726	-586.46632	919.62042	884.15910	-584.12419	880.99141	873.98217	-576.37919	877.14158	977.10299	-157.26055	872.93712	970.86178	-364.08463	900.56866	1002.44311	-177.52216	898.45356	1001.23721	-345.68311	
87	0.86000000	1048.03864	585.91223	-81.62561	1057.41359	478.39572	-101.97432	838.13150	227.02251	-169.10742	751.82829	227.58979	-233.34112	888.67173	96.59272	-129.73212	965.21339	99.66883	-178.59028	909.17714	551.70256	-454.14888	902.99083	460.26371	-474.93444	867.46449	123.87874	-410.82004	795.64654	76.43201	-344.99052	976.61979	47.53729	-448.38585	1042.51414	75.38319	-393.12597	991.23188	388.25577	-92.81539	1008.58957	518.33689	-60.45760	925.83471	436.55384	-70.67996	817.65165	471.28480	-446.92788	820.17669	349.66173	-441.13194	998.61129	910.82441	-89.98538	1047.30379	812.65072	-80.21682	1002.53894	769.28069	-51.64871	898.83559	863.85819	-75.70151	952.05647	760.09372	-71.70118	964.24035	855.31371	-465.01271	986.12390	716.06115	-458.85741	857.08835	835.65205	-474.13143	873.45767	700.54416	-472.19538	961.21767	1099.77409	-145.47274	782.07348	1100.49263	-214.29780	967.71585	1081.24651	-399.40686	780.92009	1099.63055	-324.62650	926.29391	1610.58977	-432.83437	990.93942	1592.05459	-249.18386	940.75611	1474.17588	-567.37953	1021.35797	1508.56214	-375.95505	1012.97224	1485.84362	-426.90302	954.14309	1465.03578	-134.73672	812.82592	1294.43926	-122.62160	837.34285	1329.61102	-46.54994	894.37430	1171.19611	9.77319	935.89770	1081.93379	15.66032	899.16222	1092.35753	41.62464	899.38677	1335.59773	-608.15104	847.87284	1123.80423	-485.49382	839.85485	1119.68504	-568.29542	878.22473	1057.02512	-592.82963	946.58610	891.24807	-592.16327	908.29544	879.54230	-585.08873	887.58282	979.10352	-159.29847	883.51343	972.54495	-366.11557	910.93381	1004.30403	-179.85070	909.17588	1002.99117	-347.93329	
88	0.87000000	1063.38044	588.97781	-84.20427	1077.29769	481.84512	-104.07871	870.92034	218.98852	-170.24854	784.65534	214.88098	-234.45682	928.13293	91.62368	-130.23895	1004.38863	98.47080	-179.00320	910.64116	552.20107	-454.23855	903.91820	460.69445	-475.04247	867.53875	124.19850	-410.77199	795.67392	76.84505	-345.04903	976.65031	47.55553	-448.43291	1042.53050	75.29697	-393.17570	1015.59054	388.63195	-94.64007	1026.40938	519.41396	-62.71795	947.93055	433.54827	-72.25185	818.60503	471.93018	-447.00557	820.77129	350.36290	-441.15437	1010.09193	913.74070	-91.91401	1059.97305	816.19851	-82.44071	1015.81777	772.30493	-53.85980	910.87059	865.71263	-77.55587	965.45325	762.54963	-73.96665	971.89557	854.81422	-466.59612	990.92690	715.22703	-459.85483	864.27934	837.38903	-475.01683	877.78024	701.93341	-472.70819	971.54216	1101.36731	-147.73878	792.67967	1102.09715	-216.41240	978.40279	1082.50769	-401.45915	791.73908	1101.20205	-326.74361	937.33148	1613.58222	-431.01704	999.91229	1593.74895	-246.75386	953.57784	1478.80922	-566.63620	1032.08091	1511.52249	-373.90904	1024.51686	1489.32530	-425.25598	961.63872	1465.82665	-133.81389	820.30769	1295.12370	-125.34473	843.49952	1329.50775	-48.74866	897.39108	1170.23727	8.19228	937.61142	1080.37671	14.71908	900.31201	1091.24008	39.85639	914.34611	1340.58382	-609.78913	864.90362	1125.80653	-491.22778	858.63778	1122.80826	-574.37448	899.39184	1061.76625	-599.12129	973.37975	898.43748	-600.05814	935.43606	885.34216	-593.62562	898.01407	980.72371	-161.29559	894.08360	973.93671	-368.10821	921.29393	1005.82089	-182.14675	919.86117	1004.45835	-350.11439	
89	0.88000000	1077.98759	591.55740	-86.82843	1096.51512	485.13325	-105.89699	904.15678	210.87352	-171.03153	818.14057	201.90324	-235.01313	968.15781	86.99204	-130.42704	1043.83798	97.74026	-179.24865	912.18123	552.63179	-454.38195	904.95881	461.04600	-475.20701	867.64497	124.47572	-410.77107	795.61814	77.23465	-345.11711	976.66355	47.55961	-448.49111	1042.54038	75.20022	-393.22457	1039.31069	389.01666	-96.05979	1043.21400	520.28199	-65.22432	969.39704	430.52043	-74.07789	819.65493	472.47367	-447.23034	821.45319	350.99646	-441.25975	1021.55242	916.09102	-93.75427	1072.26452	818.98179	-84.70600	1028.65669	774.62390	-56.14627	922.65246	867.14030	-79.48420	978.32064	764.49603	-76.39125	979.56794	854.17334	-468.14725	995.76531	714.30302	-460.90826	871.46804	838.97756	-475.91624	882.37918	703.27919	-473.32196	981.83916	1102.55027	-149.95071	803.31429	1103.32696	-218.42268	989.10415	1083.48375	-403.42714	802.56211	1102.44953	-328.75506	948.28781	1616.19031	-429.09410	1008.85114	1595.05778	-244.27607	966.39737	1483.07952	-565.74749	1042.77853	1514.10865	-371.77389	1035.93416	1492.41599	-423.49178	969.17058	1466.23194	-132.84391	827.96487	1295.40658	-127.95890	849.80078	1329.05345	-50.89112	900.57254	1168.99284	6.65011	939.50821	1078.59504	13.81652	901.57598	1089.85619	38.08849	929.31045	1345.28738	-611.27664	882.04339	1127.57544	-497.00259	877.52535	1125.81071	-580.46828	920.54943	1066.45240	-605.31072	999.93033	905.68064	-607.80582	962.32146	891.36478	-601.97979	908.45279	981.94111	-163.26275	904.65657	975.02651	-370.07387	931.67122	1006.96034	-184.41400	930.52640	1005.62529	-352.24152	
90	0.89000000	1091.91137	593.54928	-89.51801	1114.99315	488.17348	-107.51496	937.78837	202.81261	-171.44555	852.25874	188.81242	-234.98805	1008.64552	82.83609	-130.29891	1083.44798	97.56765	-179.33999	913.84376	552.99161	-454.56498	906.10930	461.32052	-475.40874	867.77804	124.71809	-410.79710	795.51496	77.57800	-345.18175	976.66402	47.55405	-448.55156	1042.56001	75.08955	-393.26600	1062.38095	389.31777	-97.12304	1059.04008	520.80630	-67.95610	990.24135	427.36648	-76.15776	820.82025	472.95154	-447.53995	822.21143	351.56415	-441.40908	1032.99971	917.83674	-95.52383	1084.18325	820.95040	-87.02449	1041.00110	776.20189	-58.49949	934.18702	868.10393	-81.51205	990.66512	765.87017	-78.94603	987.30323	853.39611	-469.63608	1000.66201	713.27177	-461.96567	878.71480	840.40124	-476.86065	887.28258	704.55155	-474.04189	992.15442	1103.30977	-152.09673	813.97790	1104.15885	-220.33839	999.81432	1084.17075	-405.32676	813.38932	1103.36305	-330.66566	959.16280	1618.40471	-427.06937	1017.76794	1595.95762	-241.75732	979.20065	1486.96630	-564.72265	1053.46963	1516.30207	-369.56155	1047.26563	1495.10298	-421.61944	976.77323	1466.22643	-131.83378	835.80805	1295.27755	-130.45097	856.28304	1328.22338	-52.97253	903.92855	1167.43724	5.15358	941.58786	1076.54803	12.94791	902.95639	1088.17838	36.31995	944.29122	1349.68998	-612.62488	899.30154	1129.11167	-502.79650	896.49321	1128.68546	-586.54168	941.67429	1071.06254	-611.37792	1026.20164	912.95122	-615.38187	988.90376	897.56659	-610.14177	918.92285	982.73822	-165.21130	915.24025	975.80679	-372.02405	942.09044	1007.68989	-186.65625	941.19543	1006.47947	-354.33526	
91	0.90000000	1105.20024	594.84555	-92.29581	1132.68111	490.85482	-109.03094	971.75742	194.94086	-171.50131	886.97574	175.77903	-234.41388	1049.45989	79.30092	-129.85957	1123.07775	98.02851	-179.27565	915.67554	553.27967	-454.77177	907.37120	461.52283	-475.62343	867.93881	124.93652	-410.81362	795.40619	77.84973	-345.22736	976.66038	47.55095	-448.60517	1042.61439	74.96397	-393.28974	1084.82564	389.43984	-97.93300	1074.00110	520.84129	-70.88095	1010.52742	423.95426	-78.48303	822.11343	473.39701	-447.87712	823.03556	352.07530	-441.57387	1044.42335	918.93136	-97.24525	1095.74208	822.06741	-89.39319	1052.82433	777.01000	-60.90585	945.49171	868.57000	-83.64841	1002.50758	766.61327	-81.60050	995.13703	852.48218	-471.04754	1005.66015	712.12947	-462.97562	886.08264	841.63578	-477.87829	892.48153	705.71081	-474.84981	1002.53635	1103.63725	-154.16292	824.67357	1104.57586	-222.16961	1010.53047	1084.56844	-407.17513	824.22325	1103.93566	-332.48219	969.96131	1620.22136	-424.94206	1026.67851	1596.42994	-239.19877	991.97214	1490.45460	-563.56933	1064.15884	1518.08871	-367.28263	1058.54544	1497.38279	-419.65026	984.47883	1465.78885	-130.78870	843.84938	1294.72318	-132.80490	862.97587	1326.99604	-54.98377	907.46386	1165.55126	3.71485	943.84483	1074.20059	12.11291	904.47809	1086.19508	34.55481	959.29289	1353.77797	-613.84076	916.67596	1130.42202	-508.58728	915.51272	1131.42423	-592.55682	962.74256	1075.57138	-617.31233	1052.19107	920.23445	-622.73058	1015.18058	903.87927	-618.09842	929.44993	983.10282	-167.15214	925.84519	976.27370	-373.96958	952.57725	1007.98393	-188.87323	951.89303	1007.01045	-356.41428	
